Coordinates
version=1
nRows=30
nColumns=30
inDegrees=yes

Units are S.I. units (second, meters, Newtons, ...)
Angles are in degrees.

endheader
time	floatyaw	floatroll	floatpitch	floatx	floaty	floatz	pro_sup_l	deviation_l	flexion_l	cmc_flexion_l	cmc_abduction_l	mp_flexion_l	ip_flexion_l	2mcp_flexion_l	2mcp_abduction_l	2pm_flexion_l	2md_flexion_l	3mcp_flexion_l	3mcp_abduction_l	3pm_flexion_l	3md_flexion_l	4mcp_flexion_l	4mcp_abduction_l	4pm_flexion_l	4md_flexion_l	5mcp_flexion_l	5mcp_abduction_l	5pm_flexion_l	5md_flexion_l
-0.995000	-0.845308	-4.283240	94.249796	-0.007037	-0.269128	-0.000286	89.654261	-1.397917	-2.255620	27.064262	3.025326	-18.647602	-33.677052	18.733383	5.252597	33.111012	20.875722	8.740194	3.847019	35.355861	21.455285	-1.413053	-3.202117	52.619620	33.431332	-20.179577	-9.088736	60.310471	49.222364
-0.985000	-0.845308	-4.283240	94.249796	-0.007028	-0.269178	-0.000296	89.642956	-1.399287	-2.274645	27.118631	3.049028	-18.672743	-33.727802	18.729000	5.263678	33.112972	20.906392	8.705915	3.849426	35.399226	21.508476	-1.412127	-3.202169	52.636494	33.444854	-20.167826	-9.080978	60.329574	49.243589
-0.975000	-0.845308	-4.283240	94.249796	-0.007017	-0.269219	-0.000324	89.646266	-1.388654	-2.288686	27.162627	3.039896	-18.678635	-33.764993	18.705102	5.269640	33.138250	20.930252	8.654983	3.850392	35.459634	21.557880	-1.434207	-3.206635	52.681107	33.458300	-20.144504	-9.070763	60.343045	49.286320
-0.965000	-0.845308	-4.283240	94.249796	-0.007003	-0.269242	-0.000367	89.660567	-1.368288	-2.294191	27.188581	3.003822	-18.664469	-33.787397	18.661438	5.268156	33.191696	20.944603	8.590224	3.848557	35.536258	21.597678	-1.477567	-3.212524	52.754212	33.466853	-20.109678	-9.062701	60.344893	49.352049
-0.955000	-0.845308	-4.283240	94.249796	-0.006987	-0.269240	-0.000418	89.679608	-1.343043	-2.289354	27.192013	2.954779	-18.632805	-33.795714	18.604907	5.260958	33.266187	20.948999	8.520104	3.844169	35.620770	21.624526	-1.534051	-3.216531	52.844848	33.467906	-20.064430	-9.060976	60.332951	49.429480
-0.945000	-0.845308	-4.283240	94.249796	-0.006969	-0.269212	-0.000470	89.697740	-1.318399	-2.275696	27.173129	2.908531	-18.589472	-33.789983	18.549468	5.252668	33.342840	20.942953	8.458042	3.839256	35.698135	21.635907	-1.590538	-3.216984	52.932333	33.461523	-20.009472	-9.066802	60.308441	49.499104
-0.935000	-0.845308	-4.283240	94.249796	-0.006956	-0.269165	-0.000514	89.712458	-1.298252	-2.257475	27.136855	2.875194	-18.542101	-33.768766	18.510236	5.247839	33.399046	20.926000	8.417143	3.836788	35.752476	21.630427	-1.634022	-3.214491	52.994909	33.449668	-19.946729	-9.077943	60.275756	49.542089
-0.925000	-0.845308	-4.283240	94.249796	-0.006950	-0.269108	-0.000547	89.724588	-1.283733	-2.239222	27.090719	2.855572	-18.497880	-33.730225	18.495292	5.248116	33.419787	20.900053	8.403252	3.839172	35.774811	21.610130	-1.657549	-3.211072	53.019966	33.434885	-19.882135	-9.090488	60.242132	49.548430
-0.915000	-0.845308	-4.283240	94.249796	-0.006952	-0.269051	-0.000567	89.736177	-1.273714	-2.223316	27.041665	2.843968	-18.461986	-33.674021	18.501305	5.251425	33.405115	20.871229	8.411648	3.846919	35.767469	21.582051	-1.662718	-3.208598	53.008983	33.419072	-19.825841	-9.101232	60.215854	49.520111
-0.905000	-0.845308	-4.283240	94.249796	-0.006961	-0.268999	-0.000577	89.747899	-1.266470	-2.209303	26.993856	2.834897	-18.437317	-33.602935	18.516091	5.253576	33.369338	20.848636	8.430027	3.858291	35.742210	21.556491	-1.657343	-3.207766	52.974626	33.402980	-19.788488	-9.108885	60.202558	49.468645
-0.895000	-0.845308	-4.283240	94.249796	-0.006972	-0.268954	-0.000577	89.758176	-1.261167	-2.195135	26.948722	2.827763	-18.424689	-33.523732	18.525700	5.250963	33.333150	20.840411	8.445486	3.870173	35.713548	21.542595	-1.650840	-3.208305	52.933316	33.386704	-19.776097	-9.113678	60.201455	49.409767
-0.885000	-0.845308	-4.283240	94.249796	-0.006981	-0.268912	-0.000571	89.764817	-1.258153	-2.179291	26.906925	2.825780	-18.422620	-33.446943	18.521169	5.242623	33.313886	20.849711	8.450887	3.879728	35.691694	21.544153	-1.650321	-3.209973	52.898231	33.370772	-19.787091	-9.116230	60.204479	49.358828
-0.875000	-0.845308	-4.283240	94.249796	-0.006986	-0.268874	-0.000559	89.767773	-1.258087	-2.162478	26.870817	2.830988	-18.427382	-33.385106	18.501772	5.230687	33.319003	20.873286	8.447437	3.885812	35.679037	21.558190	-1.658106	-3.213171	52.875391	33.357001	-19.813000	-9.116846	60.199996	49.328452
-0.865000	-0.845308	-4.283240	94.249796	-0.006988	-0.268841	-0.000542	89.770368	-1.260764	-2.147918	26.845541	2.840676	-18.434542	-33.349108	18.474324	5.219233	33.345016	20.903349	8.442876	3.889237	35.671523	21.576960	-1.670620	-3.218438	52.863242	33.348458	-19.842296	-9.115744	60.179869	49.327402
-0.855000	-0.845308	-4.283240	94.249796	-0.006988	-0.268816	-0.000523	89.777246	-1.264634	-2.139951	26.837298	2.848951	-18.441556	-33.343513	18.449738	5.212190	33.381034	20.931473	8.446522	3.891760	35.663459	21.592100	-1.679693	-3.225418	52.855513	33.348436	-19.865763	-9.113701	60.146062	49.358949
-0.845000	-0.845308	-4.283240	94.249796	-0.006985	-0.268802	-0.000510	89.790190	-1.267410	-2.141636	26.849369	2.852276	-18.449366	-33.363416	18.438536	5.211363	33.414185	20.952214	8.463842	3.894605	35.652371	21.598748	-1.676767	-3.232457	52.846155	33.358952	-19.880826	-9.112194	60.112550	49.418585
-0.835000	-0.845308	-4.283240	94.249796	-0.006979	-0.268799	-0.000509	89.805473	-1.267231	-2.152777	26.878981	2.853777	-18.461611	-33.395662	18.447034	5.215722	33.434227	20.964627	8.493574	3.897590	35.640752	21.597530	-1.657961	-3.237409	52.833678	33.379571	-19.892052	-9.112662	60.100755	49.492795
-0.825000	-0.845308	-4.283240	94.249796	-0.006968	-0.268800	-0.000528	89.815694	-1.263419	-2.169573	26.917998	2.861723	-18.481909	-33.424820	18.475275	5.222424	33.436055	20.971324	8.528869	3.899386	35.633856	21.593541	-1.626463	-3.239017	52.822091	33.407162	-19.906944	-9.115495	60.130501	49.560831
-0.815000	-0.845308	-4.283240	94.249796	-0.006951	-0.268799	-0.000568	89.815364	-1.256386	-2.186058	26.957085	2.882589	-18.510856	-33.440625	18.516973	5.228863	33.420225	20.976090	8.561183	3.898673	35.635543	21.593066	-1.590455	-3.237734	52.817698	33.436528	-19.929580	-9.119666	60.210938	49.600063
-0.805000	-0.845308	-4.283240	94.249796	-0.006929	-0.268785	-0.000623	89.806063	-1.247044	-2.196457	26.989837	2.914077	-18.544323	-33.441979	18.561324	5.234281	33.392061	20.981490	8.584106	3.895355	35.645244	21.599913	-1.558080	-3.235312	52.823782	33.461399	-19.956605	-9.123338	60.335555	49.593517
-0.795000	-0.845308	-4.283240	94.249796	-0.006906	-0.268754	-0.000683	89.796967	-1.236421	-2.197192	27.013705	2.943715	-18.574046	-33.434814	18.596288	5.239720	33.359642	20.987434	8.594943	3.890952	35.657911	21.613281	-1.533010	-3.233433	52.836725	33.475594	-19.978734	-9.124998	60.483159	49.536854
-0.785000	-0.845308	-4.283240	94.249796	-0.006888	-0.268706	-0.000733	89.799875	-1.225751	-2.187717	27.027694	2.954449	-18.590446	-33.425450	18.612460	5.246337	33.331107	20.991112	8.593813	3.887801	35.666636	21.628058	-1.513557	-3.232423	52.846279	33.474514	-19.987091	-9.124390	60.623949	49.441722
-0.775000	-0.845308	-4.283240	94.249796	-0.006883	-0.268649	-0.000761	89.821865	-1.216835	-2.170117	27.029505	2.933962	-18.586318	-33.414207	18.606196	5.253529	33.312332	20.988269	8.581723	3.887636	35.666174	21.637156	-1.495629	-3.231083	52.840166	33.456749	-19.980110	-9.122815	60.727917	49.333344
-0.765000	-0.845308	-4.283240	94.249796	-0.006896	-0.268594	-0.000762	89.860299	-1.212267	-2.148086	27.014906	2.882577	-18.559734	-33.393964	18.580762	5.258596	33.305988	20.975307	8.559509	3.890571	35.655400	21.634571	-1.477226	-3.227858	52.810474	33.424901	-19.965918	-9.122602	60.772310	49.242121
-0.755000	-0.845308	-4.283240	94.249796	-0.006926	-0.268556	-0.000735	89.903297	-1.215148	-2.125952	26.980128	2.815629	-18.515315	-33.355056	18.545264	5.258482	33.311755	20.951348	8.528710	3.895154	35.637395	21.617814	-1.461145	-3.222506	52.758046	33.384910	-19.957878	-9.125838	60.745863	49.191955
-0.745000	-0.845308	-4.283240	94.249796	-0.006969	-0.268542	-0.000685	89.935357	-1.228031	-2.108009	26.925494	2.758809	-18.463810	-33.293341	18.512119	5.252283	33.326273	20.919223	8.493826	3.899326	35.617007	21.588891	-1.453916	-3.216939	52.692224	33.344228	-19.965564	-9.132863	60.649370	49.190454
-0.735000	-0.845308	-4.283240	94.249796	-0.007013	-0.268554	-0.000613	89.944819	-1.251178	-2.097853	26.857143	2.738102	-18.419809	-33.215421	18.494105	5.242477	33.342192	20.884576	8.463959	3.901592	35.597162	21.553503	-1.461569	-3.214502	52.626193	33.309832	-19.986826	-9.141684	60.493556	49.225963
-0.725000	-0.845308	-4.283240	94.249796	-0.007047	-0.268583	-0.000517	89.928994	-1.280926	-2.097418	26.784868	2.768824	-18.397474	-33.136464	18.501648	5.233706	33.347730	20.853250	8.451731	3.901810	35.576079	21.518713	-1.484744	-3.217970	52.570673	33.286668	-20.006112	-9.149349	60.295346	49.272627
-0.715000	-0.845308	-4.283240	94.249796	-0.007060	-0.268616	-0.000393	89.894251	-1.309321	-2.105906	26.717202	2.849253	-18.405389	-33.071368	18.540757	5.229866	33.328813	20.828428	8.469089	3.901338	35.547192	21.490033	-1.515884	-3.227409	52.529242	33.276624	-20.000469	-9.154830	60.073604	49.300112
-0.705000	-0.845308	-4.283240	94.249796	-0.007045	-0.268640	-0.000242	89.851394	-1.325767	-2.119346	26.657342	2.962218	-18.442727	-33.025414	18.611786	5.231562	33.274087	20.809718	8.521867	3.902477	35.502159	21.469636	-1.540620	-3.239389	52.497903	33.278428	-19.950394	-9.160997	59.846681	49.283154
